<svg xmlns="http://www.w3.org/2000/svg" version="1.1" width="488.7mm" height="196.7mm" viewBox = " 0 0 1731.615597 696.969077" >
<!-- Front--> 
<g transform="translate(22.5000185, 22.5000185) " > 
<polygon style="stroke:#000000; fill:none; stroke-width:0.00354331" points="0, 0 53.14965, 0 53.14965, 21.25986 106.2993, 21.25986 106.2993, 0 148.81902, 0 148.81902, 21.25986 191.33874, 21.25986 191.33874, 0 233.85845999999998, 0 233.85845999999998, 21.25986 276.37818, 21.25986 276.37818, 0 318.8979, 0 318.8979, 21.25986 361.41762, 21.25986 361.41762, 0 403.93734, 0 403.93734, 21.25986 446.45706, 21.25986 446.45706, 0 488.97678, 0 488.97678, 21.25986 531.4965, 21.25986 531.4965, 0 574.01622, 0 574.01622, 21.25986 627.16587, 21.25986 627.16587, 0 680.31552, 0 680.31552, 70.86619999999999 659.05566, 70.86619999999999 659.05566, 141.73239999999998 680.31552, 141.73239999999998 680.31552, 184.25212 659.05566, 184.25212 659.05566, 255.11831999999998 680.31552, 255.11831999999998 680.31552, 325.98452 627.16587, 325.98452 627.16587, 304.72466 574.01622, 304.72466 574.01622, 325.98452 531.4965, 325.98452 531.4965, 304.72466 488.97678, 304.72466 488.97678, 325.98452 446.45706, 325.98452 446.45706, 304.72466 403.93734, 304.72466 403.93734, 325.98452 361.41762, 325.98452 361.41762, 304.72466 318.8979, 304.72466 318.8979, 325.98452 276.37818, 325.98452 276.37818, 304.72466 233.85845999999998, 304.72466 233.85845999999998, 325.98452 191.33874, 325.98452 191.33874, 304.72466 148.81902, 304.72466 148.81902, 325.98452 106.2993, 325.98452 106.2993, 304.72466 53.14965, 304.72466 53.14965, 325.98452 0, 325.98452 0, 255.11831999999998 21.25986, 255.11831999999998 21.25986, 184.25212 0, 184.25212 0, 141.73239999999998 21.25986, 141.73239999999998 21.25986, 70.86619999999999 0, 70.86619999999999 "/> 
</g>
<!-- Back--> 
<g transform="translate(702.8155385, 22.5000185) " > 
<polygon style="stroke:#000000; fill:none; stroke-width:0.00354331" points="0, 0 53.14965, 0 53.14965, 21.25986 106.2993, 21.25986 106.2993, 0 148.81902, 0 148.81902, 21.25986 191.33874, 21.25986 191.33874, 0 233.85845999999998, 0 233.85845999999998, 21.25986 276.37818, 21.25986 276.37818, 0 318.8979, 0 318.8979, 21.25986 361.41762, 21.25986 361.41762, 0 403.93734, 0 403.93734, 21.25986 446.45706, 21.25986 446.45706, 0 488.97678, 0 488.97678, 21.25986 531.4965, 21.25986 531.4965, 0 574.01622, 0 574.01622, 21.25986 627.16587, 21.25986 627.16587, 0 680.31552, 0 680.31552, 70.86619999999999 659.05566, 70.86619999999999 659.05566, 141.73239999999998 680.31552, 141.73239999999998 680.31552, 184.25212 659.05566, 184.25212 659.05566, 255.11831999999998 680.31552, 255.11831999999998 680.31552, 325.98452 627.16587, 325.98452 627.16587, 304.72466 574.01622, 304.72466 574.01622, 325.98452 531.4965, 325.98452 531.4965, 304.72466 488.97678, 304.72466 488.97678, 325.98452 446.45706, 325.98452 446.45706, 304.72466 403.93734, 304.72466 403.93734, 325.98452 361.41762, 325.98452 361.41762, 304.72466 318.8979, 304.72466 318.8979, 325.98452 276.37818, 325.98452 276.37818, 304.72466 233.85845999999998, 304.72466 233.85845999999998, 325.98452 191.33874, 325.98452 191.33874, 304.72466 148.81902, 304.72466 148.81902, 325.98452 106.2993, 325.98452 106.2993, 304.72466 53.14965, 304.72466 53.14965, 325.98452 0, 325.98452 0, 255.11831999999998 21.25986, 255.11831999999998 21.25986, 184.25212 0, 184.25212 0, 141.73239999999998 21.25986, 141.73239999999998 21.25986, 70.86619999999999 0, 70.86619999999999 "/> 
</g>
<!-- Left--> 
<g transform="translate(1383.1310585, 22.5000185) " > 
<polygon style="stroke:#000000; fill:none; stroke-width:0.00354331" points="21.25986, 0 70.86619999999999, 0 70.86619999999999, 21.25986 141.73239999999998, 21.25986 141.73239999999998, 0 184.25212, 0 184.25212, 21.25986 255.11831999999998, 21.25986 255.11831999999998, 0 304.72466, 0 304.72466, 70.86619999999999 325.98452, 70.86619999999999 325.98452, 141.73239999999998 304.72466, 141.73239999999998 304.72466, 184.25212 325.98452, 184.25212 325.98452, 255.11831999999998 304.72466, 255.11831999999998 304.72466, 325.98452 255.11831999999998, 325.98452 255.11831999999998, 304.72466 184.25212, 304.72466 184.25212, 325.98452 141.73239999999998, 325.98452 141.73239999999998, 304.72466 70.86619999999999, 304.72466 70.86619999999999, 325.98452 21.25986, 325.98452 21.25986, 255.11831999999998 0, 255.11831999999998 0, 184.25212 21.25986, 184.25212 21.25986, 141.73239999999998 0, 141.73239999999998 0, 70.86619999999999 21.25986, 70.86619999999999 "/> 
 <rect x="21.25986" y="0" width="17.716549999999998" height="17.716549999999998" rx="3.54331" ry="3.54331" style="stroke:#000000;stroke-width:0.00354331;fill:none" /> 
</g>
<!-- Right--> 
<g transform="translate(1383.1310585, 348.4845385) " > 
<polygon style="stroke:#000000; fill:none; stroke-width:0.00354331" points="21.25986, 0 70.86619999999999, 0 70.86619999999999, 21.25986 141.73239999999998, 21.25986 141.73239999999998, 0 184.25212, 0 184.25212, 21.25986 255.11831999999998, 21.25986 255.11831999999998, 0 304.72466, 0 304.72466, 70.86619999999999 325.98452, 70.86619999999999 325.98452, 141.73239999999998 304.72466, 141.73239999999998 304.72466, 184.25212 325.98452, 184.25212 325.98452, 255.11831999999998 304.72466, 255.11831999999998 304.72466, 325.98452 255.11831999999998, 325.98452 255.11831999999998, 304.72466 184.25212, 304.72466 184.25212, 325.98452 141.73239999999998, 325.98452 141.73239999999998, 304.72466 70.86619999999999, 304.72466 70.86619999999999, 325.98452 21.25986, 325.98452 21.25986, 255.11831999999998 0, 255.11831999999998 0, 184.25212 21.25986, 184.25212 21.25986, 141.73239999999998 0, 141.73239999999998 0, 70.86619999999999 21.25986, 70.86619999999999 "/> 
</g>
<!-- Top--> 
<g transform="translate(22.5000185, 348.4845385) " > 
<polygon style="stroke:#000000; fill:none; stroke-width:0.00354331" points="21.25986, 21.25986 53.14965, 21.25986 53.14965, 0 106.2993, 0 106.2993, 21.25986 148.81902, 21.25986 148.81902, 0 191.33874, 0 191.33874, 21.25986 233.85845999999998, 21.25986 233.85845999999998, 0 276.37818, 0 276.37818, 21.25986 318.8979, 21.25986 318.8979, 0 361.41762, 0 361.41762, 21.25986 403.93734, 21.25986 403.93734, 0 446.45706, 0 446.45706, 21.25986 488.97678, 21.25986 488.97678, 0 531.4965, 0 531.4965, 21.25986 574.01622, 21.25986 574.01622, 0 627.16587, 0 627.16587, 21.25986 659.05566, 21.25986 659.05566, 70.86619999999999 680.31552, 70.86619999999999 680.31552, 141.73239999999998 659.05566, 141.73239999999998 659.05566, 184.25212 680.31552, 184.25212 680.31552, 255.11831999999998 659.05566, 255.11831999999998 659.05566, 304.72466 627.16587, 304.72466 627.16587, 325.98452 574.01622, 325.98452 574.01622, 304.72466 531.4965, 304.72466 531.4965, 325.98452 488.97678, 325.98452 488.97678, 304.72466 446.45706, 304.72466 446.45706, 325.98452 403.93734, 325.98452 403.93734, 304.72466 361.41762, 304.72466 361.41762, 325.98452 318.8979, 325.98452 318.8979, 304.72466 276.37818, 304.72466 276.37818, 325.98452 233.85845999999998, 325.98452 233.85845999999998, 304.72466 191.33874, 304.72466 191.33874, 325.98452 148.81902, 325.98452 148.81902, 304.72466 106.2993, 304.72466 106.2993, 325.98452 53.14965, 325.98452 53.14965, 304.72466 21.25986, 304.72466 21.25986, 255.11831999999998 0, 255.11831999999998 0, 184.25212 21.25986, 184.25212 21.25986, 141.73239999999998 0, 141.73239999999998 0, 70.86619999999999 21.25986, 70.86619999999999 "/> 
</g>
<!-- Bottom--> 
<g transform="translate(702.8155385, 348.4845385) " > 
<polygon style="stroke:#000000; fill:none; stroke-width:0.00354331" points="21.25986, 21.25986 53.14965, 21.25986 53.14965, 0 106.2993, 0 106.2993, 21.25986 148.81902, 21.25986 148.81902, 0 191.33874, 0 191.33874, 21.25986 233.85845999999998, 21.25986 233.85845999999998, 0 276.37818, 0 276.37818, 21.25986 318.8979, 21.25986 318.8979, 0 361.41762, 0 361.41762, 21.25986 403.93734, 21.25986 403.93734, 0 446.45706, 0 446.45706, 21.25986 488.97678, 21.25986 488.97678, 0 531.4965, 0 531.4965, 21.25986 574.01622, 21.25986 574.01622, 0 627.16587, 0 627.16587, 21.25986 659.05566, 21.25986 659.05566, 70.86619999999999 680.31552, 70.86619999999999 680.31552, 141.73239999999998 659.05566, 141.73239999999998 659.05566, 184.25212 680.31552, 184.25212 680.31552, 255.11831999999998 659.05566, 255.11831999999998 659.05566, 304.72466 627.16587, 304.72466 627.16587, 325.98452 574.01622, 325.98452 574.01622, 304.72466 531.4965, 304.72466 531.4965, 325.98452 488.97678, 325.98452 488.97678, 304.72466 446.45706, 304.72466 446.45706, 325.98452 403.93734, 325.98452 403.93734, 304.72466 361.41762, 304.72466 361.41762, 325.98452 318.8979, 325.98452 318.8979, 304.72466 276.37818, 304.72466 276.37818, 325.98452 233.85845999999998, 325.98452 233.85845999999998, 304.72466 191.33874, 304.72466 191.33874, 325.98452 148.81902, 325.98452 148.81902, 304.72466 106.2993, 304.72466 106.2993, 325.98452 53.14965, 325.98452 53.14965, 304.72466 21.25986, 304.72466 21.25986, 255.11831999999998 0, 255.11831999999998 0, 184.25212 21.25986, 184.25212 21.25986, 141.73239999999998 0, 141.73239999999998 0, 70.86619999999999 21.25986, 70.86619999999999 "/> 
</g></svg>